<mxfile host="app.diagrams.net" modified="2023-04-01T11:47:55.351Z" agent="Mozilla/5.0 (Windows NT 10.0; Win64; x64) AppleWebKit/537.36 (KHTML, like Gecko) Chrome/111.0.0.0 Safari/537.36 Edg/111.0.1661.54" etag="VSc6wqSr9F30VRJg9dK-" version="21.1.2" type="github">
  <diagram name="第 1 页" id="2B0pSv7mWZcvI0ucibEp">
    <mxGraphModel dx="2414" dy="930" grid="1" gridSize="10" guides="1" tooltips="1" connect="1" arrows="1" fold="1" page="1" pageScale="1" pageWidth="827" pageHeight="1169" math="0" shadow="0">
      <root>
        <mxCell id="0" />
        <mxCell id="1" parent="0" />
        <mxCell id="2ikDIFDFPIvgR9HcbcMp-5" value="服务端" style="shape=umlLifeline;perimeter=lifelinePerimeter;whiteSpace=wrap;html=1;container=1;dropTarget=0;collapsible=0;recursiveResize=0;outlineConnect=0;portConstraint=eastwest;newEdgeStyle={&quot;edgeStyle&quot;:&quot;elbowEdgeStyle&quot;,&quot;elbow&quot;:&quot;vertical&quot;,&quot;curved&quot;:0,&quot;rounded&quot;:0};" vertex="1" parent="1">
          <mxGeometry x="140" y="435" width="100" height="485" as="geometry" />
        </mxCell>
        <mxCell id="2ikDIFDFPIvgR9HcbcMp-7" value="离线生成多个差分文件列表" style="html=1;points=[];perimeter=orthogonalPerimeter;outlineConnect=0;targetShapes=umlLifeline;portConstraint=eastwest;newEdgeStyle={&quot;edgeStyle&quot;:&quot;elbowEdgeStyle&quot;,&quot;elbow&quot;:&quot;vertical&quot;,&quot;curved&quot;:0,&quot;rounded&quot;:0};" vertex="1" parent="2ikDIFDFPIvgR9HcbcMp-5">
          <mxGeometry x="45" y="65" width="10" height="80" as="geometry" />
        </mxCell>
        <mxCell id="2ikDIFDFPIvgR9HcbcMp-6" value="客户端" style="shape=umlLifeline;perimeter=lifelinePerimeter;whiteSpace=wrap;html=1;container=1;dropTarget=0;collapsible=0;recursiveResize=0;outlineConnect=0;portConstraint=eastwest;newEdgeStyle={&quot;edgeStyle&quot;:&quot;elbowEdgeStyle&quot;,&quot;elbow&quot;:&quot;vertical&quot;,&quot;curved&quot;:0,&quot;rounded&quot;:0};" vertex="1" parent="1">
          <mxGeometry x="395" y="435" width="100" height="475" as="geometry" />
        </mxCell>
        <mxCell id="2ikDIFDFPIvgR9HcbcMp-9" value="启动" style="html=1;points=[];perimeter=orthogonalPerimeter;outlineConnect=0;targetShapes=umlLifeline;portConstraint=eastwest;newEdgeStyle={&quot;edgeStyle&quot;:&quot;elbowEdgeStyle&quot;,&quot;elbow&quot;:&quot;vertical&quot;,&quot;curved&quot;:0,&quot;rounded&quot;:0};" vertex="1" parent="2ikDIFDFPIvgR9HcbcMp-6">
          <mxGeometry x="45" y="130" width="10" height="35" as="geometry" />
        </mxCell>
        <mxCell id="2ikDIFDFPIvgR9HcbcMp-11" value="本地状态检查" style="html=1;points=[];perimeter=orthogonalPerimeter;outlineConnect=0;targetShapes=umlLifeline;portConstraint=eastwest;newEdgeStyle={&quot;edgeStyle&quot;:&quot;elbowEdgeStyle&quot;,&quot;elbow&quot;:&quot;vertical&quot;,&quot;curved&quot;:0,&quot;rounded&quot;:0};" vertex="1" parent="2ikDIFDFPIvgR9HcbcMp-6">
          <mxGeometry x="45" y="205" width="10" height="80" as="geometry" />
        </mxCell>
        <mxCell id="2ikDIFDFPIvgR9HcbcMp-14" value="下载" style="html=1;points=[];perimeter=orthogonalPerimeter;outlineConnect=0;targetShapes=umlLifeline;portConstraint=eastwest;newEdgeStyle={&quot;edgeStyle&quot;:&quot;elbowEdgeStyle&quot;,&quot;elbow&quot;:&quot;vertical&quot;,&quot;curved&quot;:0,&quot;rounded&quot;:0};" vertex="1" parent="2ikDIFDFPIvgR9HcbcMp-6">
          <mxGeometry x="45" y="325" width="10" height="125" as="geometry" />
        </mxCell>
        <mxCell id="2ikDIFDFPIvgR9HcbcMp-8" value="请求PatchMD5文件" style="endArrow=open;endSize=12;dashed=1;html=1;rounded=0;" edge="1" parent="1" source="2ikDIFDFPIvgR9HcbcMp-6" target="2ikDIFDFPIvgR9HcbcMp-5">
          <mxGeometry width="160" relative="1" as="geometry">
            <mxPoint x="370" y="620" as="sourcePoint" />
            <mxPoint x="450" y="620" as="targetPoint" />
            <Array as="points">
              <mxPoint x="290" y="600" />
            </Array>
          </mxGeometry>
        </mxCell>
        <mxCell id="2ikDIFDFPIvgR9HcbcMp-10" value="返回PatchMD5文件" style="endArrow=open;endSize=12;dashed=1;html=1;rounded=0;" edge="1" parent="1" target="2ikDIFDFPIvgR9HcbcMp-6">
          <mxGeometry width="160" relative="1" as="geometry">
            <mxPoint x="190" y="640" as="sourcePoint" />
            <mxPoint x="350" y="640" as="targetPoint" />
          </mxGeometry>
        </mxCell>
        <mxCell id="2ikDIFDFPIvgR9HcbcMp-12" value="请求特定差分文件列表" style="endArrow=open;endSize=12;dashed=1;html=1;rounded=0;" edge="1" parent="1" source="2ikDIFDFPIvgR9HcbcMp-6" target="2ikDIFDFPIvgR9HcbcMp-5">
          <mxGeometry width="160" relative="1" as="geometry">
            <mxPoint x="260" y="750" as="sourcePoint" />
            <mxPoint x="420" y="750" as="targetPoint" />
            <Array as="points">
              <mxPoint x="310" y="720" />
            </Array>
          </mxGeometry>
        </mxCell>
        <mxCell id="2ikDIFDFPIvgR9HcbcMp-13" value="返回差分文件列表" style="endArrow=open;endSize=12;dashed=1;html=1;rounded=0;" edge="1" parent="1" target="2ikDIFDFPIvgR9HcbcMp-6">
          <mxGeometry width="160" relative="1" as="geometry">
            <mxPoint x="190" y="760" as="sourcePoint" />
            <mxPoint x="350" y="760" as="targetPoint" />
          </mxGeometry>
        </mxCell>
        <mxCell id="2ikDIFDFPIvgR9HcbcMp-16" value="" style="ellipse;html=1;shape=endState;fillColor=#000000;strokeColor=#ff0000;" vertex="1" parent="1">
          <mxGeometry x="430" y="910" width="30" height="30" as="geometry" />
        </mxCell>
      </root>
    </mxGraphModel>
  </diagram>
</mxfile>
